<mxfile host="app.diagrams.net" agent="Mozilla/5.0 (Windows NT 10.0; Win64; x64) AppleWebKit/537.36 (KHTML, like Gecko) Chrome/138.0.0.0 Safari/537.36" version="27.2.0">
  <diagram name="Page-1" id="bkbml11WEsmU4Ul7aOmc">
    <mxGraphModel dx="872" dy="439" grid="1" gridSize="10" guides="1" tooltips="1" connect="1" arrows="1" fold="1" page="1" pageScale="1" pageWidth="827" pageHeight="1169" math="0" shadow="0">
      <root>
        <mxCell id="0" />
        <mxCell id="1" parent="0" />
        <mxCell id="v_S5VonyDdlzh0pliYqW-7" style="edgeStyle=orthogonalEdgeStyle;rounded=0;orthogonalLoop=1;jettySize=auto;html=1;exitX=1;exitY=0.5;exitDx=0;exitDy=0;" parent="1" source="v_S5VonyDdlzh0pliYqW-1" target="v_S5VonyDdlzh0pliYqW-5" edge="1">
          <mxGeometry relative="1" as="geometry" />
        </mxCell>
        <mxCell id="v_S5VonyDdlzh0pliYqW-8" style="edgeStyle=orthogonalEdgeStyle;rounded=0;orthogonalLoop=1;jettySize=auto;html=1;exitX=0;exitY=0.5;exitDx=0;exitDy=0;entryX=0.5;entryY=0;entryDx=0;entryDy=0;" parent="1" source="v_S5VonyDdlzh0pliYqW-1" target="v_S5VonyDdlzh0pliYqW-3" edge="1">
          <mxGeometry relative="1" as="geometry" />
        </mxCell>
        <mxCell id="v_S5VonyDdlzh0pliYqW-1" value="&lt;b&gt;&lt;font style=&quot;font-size: 16px;&quot;&gt;Google Earth Engine (GEE)&lt;/font&gt;&lt;/b&gt;" style="rounded=0;whiteSpace=wrap;html=1;" parent="1" vertex="1">
          <mxGeometry x="260" y="40" width="190" height="50" as="geometry" />
        </mxCell>
        <mxCell id="v_S5VonyDdlzh0pliYqW-10" style="edgeStyle=orthogonalEdgeStyle;rounded=0;orthogonalLoop=1;jettySize=auto;html=1;exitX=0;exitY=0.5;exitDx=0;exitDy=0;entryX=0;entryY=0.5;entryDx=0;entryDy=0;" parent="1" source="v_S5VonyDdlzh0pliYqW-3" target="v_S5VonyDdlzh0pliYqW-9" edge="1">
          <mxGeometry relative="1" as="geometry" />
        </mxCell>
        <mxCell id="v_S5VonyDdlzh0pliYqW-3" value="&lt;b&gt;&lt;font style=&quot;font-size: 16px;&quot;&gt;Landsat-05 TM&lt;br&gt;(2004)&lt;/font&gt;&lt;/b&gt;" style="rounded=0;whiteSpace=wrap;html=1;" parent="1" vertex="1">
          <mxGeometry x="130" y="120" width="140" height="50" as="geometry" />
        </mxCell>
        <mxCell id="v_S5VonyDdlzh0pliYqW-11" style="edgeStyle=orthogonalEdgeStyle;rounded=0;orthogonalLoop=1;jettySize=auto;html=1;exitX=0.5;exitY=1;exitDx=0;exitDy=0;entryX=0.5;entryY=0;entryDx=0;entryDy=0;" parent="1" source="v_S5VonyDdlzh0pliYqW-4" target="v_S5VonyDdlzh0pliYqW-9" edge="1">
          <mxGeometry relative="1" as="geometry" />
        </mxCell>
        <mxCell id="v_S5VonyDdlzh0pliYqW-4" value="&lt;b&gt;&lt;font style=&quot;font-size: 16px;&quot;&gt;Landsat-05 TM&lt;br&gt;(2004)&lt;/font&gt;&lt;/b&gt;" style="rounded=0;whiteSpace=wrap;html=1;" parent="1" vertex="1">
          <mxGeometry x="290" y="120" width="150" height="50" as="geometry" />
        </mxCell>
        <mxCell id="v_S5VonyDdlzh0pliYqW-12" style="edgeStyle=orthogonalEdgeStyle;rounded=0;orthogonalLoop=1;jettySize=auto;html=1;exitX=1;exitY=0.5;exitDx=0;exitDy=0;entryX=1;entryY=0.5;entryDx=0;entryDy=0;" parent="1" source="v_S5VonyDdlzh0pliYqW-5" target="v_S5VonyDdlzh0pliYqW-9" edge="1">
          <mxGeometry relative="1" as="geometry" />
        </mxCell>
        <mxCell id="v_S5VonyDdlzh0pliYqW-5" value="&lt;b&gt;&lt;font style=&quot;font-size: 16px;&quot;&gt;Landsat-05 TM&lt;br&gt;(2004)&lt;/font&gt;&lt;/b&gt;" style="rounded=0;whiteSpace=wrap;html=1;" parent="1" vertex="1">
          <mxGeometry x="460" y="120" width="130" height="50" as="geometry" />
        </mxCell>
        <mxCell id="v_S5VonyDdlzh0pliYqW-6" style="edgeStyle=orthogonalEdgeStyle;rounded=0;orthogonalLoop=1;jettySize=auto;html=1;exitX=0.5;exitY=1;exitDx=0;exitDy=0;entryX=0.433;entryY=-0.02;entryDx=0;entryDy=0;entryPerimeter=0;" parent="1" source="v_S5VonyDdlzh0pliYqW-1" target="v_S5VonyDdlzh0pliYqW-4" edge="1">
          <mxGeometry relative="1" as="geometry" />
        </mxCell>
        <mxCell id="v_S5VonyDdlzh0pliYqW-9" value="&lt;b&gt;&lt;font style=&quot;font-size: 16px;&quot;&gt;Image processing, filtering, date selection, cloud cover, and band selection&lt;/font&gt;&lt;/b&gt;" style="rounded=0;whiteSpace=wrap;html=1;" parent="1" vertex="1">
          <mxGeometry x="200" y="200" width="330" height="50" as="geometry" />
        </mxCell>
        <mxCell id="v_S5VonyDdlzh0pliYqW-20" style="edgeStyle=orthogonalEdgeStyle;rounded=0;orthogonalLoop=1;jettySize=auto;html=1;exitX=1;exitY=0.5;exitDx=0;exitDy=0;entryX=0;entryY=0.5;entryDx=0;entryDy=0;" parent="1" source="v_S5VonyDdlzh0pliYqW-13" target="v_S5VonyDdlzh0pliYqW-14" edge="1">
          <mxGeometry relative="1" as="geometry" />
        </mxCell>
        <mxCell id="v_S5VonyDdlzh0pliYqW-13" value="&lt;span style=&quot;font-size: 16px;&quot;&gt;&lt;b&gt;Image mosaicking&amp;nbsp;&lt;/b&gt;&lt;/span&gt;" style="rounded=0;whiteSpace=wrap;html=1;" parent="1" vertex="1">
          <mxGeometry x="90" y="280" width="200" height="40" as="geometry" />
        </mxCell>
        <mxCell id="v_S5VonyDdlzh0pliYqW-14" value="&lt;span style=&quot;font-size: 16px;&quot;&gt;&lt;b&gt;Clipping image to study area&lt;/b&gt;&lt;/span&gt;" style="rounded=0;whiteSpace=wrap;html=1;" parent="1" vertex="1">
          <mxGeometry x="330" y="280" width="240" height="40" as="geometry" />
        </mxCell>
        <mxCell id="v_S5VonyDdlzh0pliYqW-23" style="edgeStyle=orthogonalEdgeStyle;rounded=0;orthogonalLoop=1;jettySize=auto;html=1;exitX=0;exitY=0.5;exitDx=0;exitDy=0;entryX=1;entryY=0.5;entryDx=0;entryDy=0;" parent="1" source="v_S5VonyDdlzh0pliYqW-15" target="v_S5VonyDdlzh0pliYqW-16" edge="1">
          <mxGeometry relative="1" as="geometry" />
        </mxCell>
        <mxCell id="v_S5VonyDdlzh0pliYqW-15" value="&lt;span style=&quot;font-size: 16px;&quot;&gt;&lt;b&gt;Band median&lt;/b&gt;&lt;/span&gt;" style="rounded=0;whiteSpace=wrap;html=1;" parent="1" vertex="1">
          <mxGeometry x="390" y="355" width="220" height="40" as="geometry" />
        </mxCell>
        <mxCell id="S091G2MCqINUJ3p7p08H-8" style="edgeStyle=orthogonalEdgeStyle;rounded=0;orthogonalLoop=1;jettySize=auto;html=1;exitX=0.75;exitY=1;exitDx=0;exitDy=0;entryX=0;entryY=0.5;entryDx=0;entryDy=0;" edge="1" parent="1" source="v_S5VonyDdlzh0pliYqW-16" target="v_S5VonyDdlzh0pliYqW-17">
          <mxGeometry relative="1" as="geometry" />
        </mxCell>
        <mxCell id="v_S5VonyDdlzh0pliYqW-16" value="&lt;span style=&quot;font-size: 16px;&quot;&gt;&lt;b&gt;Collection of training samples&lt;/b&gt;&lt;/span&gt;" style="rounded=0;whiteSpace=wrap;html=1;" parent="1" vertex="1">
          <mxGeometry x="90" y="350" width="220" height="50" as="geometry" />
        </mxCell>
        <mxCell id="S091G2MCqINUJ3p7p08H-9" style="edgeStyle=orthogonalEdgeStyle;rounded=0;orthogonalLoop=1;jettySize=auto;html=1;exitX=0.5;exitY=1;exitDx=0;exitDy=0;entryX=0.5;entryY=0;entryDx=0;entryDy=0;" edge="1" parent="1" source="v_S5VonyDdlzh0pliYqW-17" target="v_S5VonyDdlzh0pliYqW-18">
          <mxGeometry relative="1" as="geometry" />
        </mxCell>
        <mxCell id="v_S5VonyDdlzh0pliYqW-17" value="&lt;span style=&quot;font-size: 16px;&quot;&gt;&lt;b&gt;Merging of bands&lt;/b&gt;&lt;/span&gt;" style="rounded=0;whiteSpace=wrap;html=1;" parent="1" vertex="1">
          <mxGeometry x="325" y="440" width="190" height="40" as="geometry" />
        </mxCell>
        <mxCell id="v_S5VonyDdlzh0pliYqW-38" style="edgeStyle=orthogonalEdgeStyle;rounded=0;orthogonalLoop=1;jettySize=auto;html=1;exitX=0.5;exitY=1;exitDx=0;exitDy=0;entryX=0.5;entryY=0;entryDx=0;entryDy=0;" parent="1" source="v_S5VonyDdlzh0pliYqW-18" target="v_S5VonyDdlzh0pliYqW-27" edge="1">
          <mxGeometry relative="1" as="geometry" />
        </mxCell>
        <mxCell id="v_S5VonyDdlzh0pliYqW-18" value="&lt;span style=&quot;font-size: 16px;&quot;&gt;&lt;b&gt;Pixel supervised classification&lt;/b&gt;&lt;/span&gt;&lt;div&gt;&lt;span style=&quot;font-size: 16px;&quot;&gt;&lt;b&gt;(Random Forest)&lt;/b&gt;&lt;/span&gt;&lt;/div&gt;" style="rounded=0;whiteSpace=wrap;html=1;" parent="1" vertex="1">
          <mxGeometry x="300" y="510" width="240" height="40" as="geometry" />
        </mxCell>
        <mxCell id="v_S5VonyDdlzh0pliYqW-19" style="edgeStyle=orthogonalEdgeStyle;rounded=0;orthogonalLoop=1;jettySize=auto;html=1;exitX=0.25;exitY=1;exitDx=0;exitDy=0;entryX=0.363;entryY=-0.025;entryDx=0;entryDy=0;entryPerimeter=0;" parent="1" source="v_S5VonyDdlzh0pliYqW-9" target="v_S5VonyDdlzh0pliYqW-13" edge="1">
          <mxGeometry relative="1" as="geometry" />
        </mxCell>
        <mxCell id="v_S5VonyDdlzh0pliYqW-33" style="edgeStyle=orthogonalEdgeStyle;rounded=0;orthogonalLoop=1;jettySize=auto;html=1;exitX=0.5;exitY=1;exitDx=0;exitDy=0;exitPerimeter=0;entryX=0;entryY=0.5;entryDx=0;entryDy=0;" parent="1" source="v_S5VonyDdlzh0pliYqW-26" target="v_S5VonyDdlzh0pliYqW-30" edge="1">
          <mxGeometry relative="1" as="geometry" />
        </mxCell>
        <mxCell id="v_S5VonyDdlzh0pliYqW-34" value="&lt;font style=&quot;font-size: 14px;&quot;&gt;&lt;b&gt;YES&lt;/b&gt;&lt;/font&gt;" style="edgeLabel;html=1;align=center;verticalAlign=middle;resizable=0;points=[];" parent="v_S5VonyDdlzh0pliYqW-33" vertex="1" connectable="0">
          <mxGeometry x="-0.7212" y="-2" relative="1" as="geometry">
            <mxPoint as="offset" />
          </mxGeometry>
        </mxCell>
        <mxCell id="S091G2MCqINUJ3p7p08H-3" style="edgeStyle=orthogonalEdgeStyle;rounded=0;orthogonalLoop=1;jettySize=auto;html=1;exitX=0.5;exitY=0;exitDx=0;exitDy=0;exitPerimeter=0;entryX=0.5;entryY=1;entryDx=0;entryDy=0;" edge="1" parent="1" source="v_S5VonyDdlzh0pliYqW-26" target="S091G2MCqINUJ3p7p08H-1">
          <mxGeometry relative="1" as="geometry" />
        </mxCell>
        <mxCell id="S091G2MCqINUJ3p7p08H-4" value="&lt;b&gt;&lt;font style=&quot;font-size: 13px;&quot;&gt;NO&lt;/font&gt;&lt;/b&gt;" style="edgeLabel;html=1;align=center;verticalAlign=middle;resizable=0;points=[];" vertex="1" connectable="0" parent="S091G2MCqINUJ3p7p08H-3">
          <mxGeometry x="-0.2" y="1" relative="1" as="geometry">
            <mxPoint x="1" as="offset" />
          </mxGeometry>
        </mxCell>
        <mxCell id="v_S5VonyDdlzh0pliYqW-26" value="&lt;b&gt;&lt;font style=&quot;font-size: 14px;&quot;&gt;Decision&lt;/font&gt;&lt;/b&gt;" style="strokeWidth=2;html=1;shape=mxgraph.flowchart.decision;whiteSpace=wrap;" parent="1" vertex="1">
          <mxGeometry x="122.5" y="575" width="90" height="60" as="geometry" />
        </mxCell>
        <mxCell id="v_S5VonyDdlzh0pliYqW-27" value="&lt;span style=&quot;font-size: 16px;&quot;&gt;&lt;b&gt;Accuracy Assessment&lt;/b&gt;&lt;/span&gt;" style="rounded=0;whiteSpace=wrap;html=1;" parent="1" vertex="1">
          <mxGeometry x="300" y="585" width="240" height="40" as="geometry" />
        </mxCell>
        <mxCell id="v_S5VonyDdlzh0pliYqW-30" value="&lt;span style=&quot;font-size: 16px;&quot;&gt;&lt;b&gt;LULC Maps (2004, 2014, 2024)&lt;/b&gt;&lt;/span&gt;" style="rounded=0;whiteSpace=wrap;html=1;" parent="1" vertex="1">
          <mxGeometry x="300" y="670" width="240" height="40" as="geometry" />
        </mxCell>
        <mxCell id="v_S5VonyDdlzh0pliYqW-31" style="edgeStyle=orthogonalEdgeStyle;rounded=0;orthogonalLoop=1;jettySize=auto;html=1;exitX=0;exitY=0.5;exitDx=0;exitDy=0;entryX=1;entryY=0.5;entryDx=0;entryDy=0;entryPerimeter=0;" parent="1" source="v_S5VonyDdlzh0pliYqW-27" target="v_S5VonyDdlzh0pliYqW-26" edge="1">
          <mxGeometry relative="1" as="geometry" />
        </mxCell>
        <mxCell id="v_S5VonyDdlzh0pliYqW-35" style="edgeStyle=orthogonalEdgeStyle;rounded=0;orthogonalLoop=1;jettySize=auto;html=1;exitX=0.5;exitY=1;exitDx=0;exitDy=0;entryX=0.286;entryY=0.025;entryDx=0;entryDy=0;entryPerimeter=0;" parent="1" source="v_S5VonyDdlzh0pliYqW-14" target="v_S5VonyDdlzh0pliYqW-15" edge="1">
          <mxGeometry relative="1" as="geometry" />
        </mxCell>
        <mxCell id="S091G2MCqINUJ3p7p08H-1" value="&lt;span style=&quot;font-size: 16px;&quot;&gt;&lt;b&gt;Identification of training geometry&lt;/b&gt;&lt;/span&gt;" style="rounded=0;whiteSpace=wrap;html=1;" vertex="1" parent="1">
          <mxGeometry x="100" y="450" width="135" height="70" as="geometry" />
        </mxCell>
        <mxCell id="S091G2MCqINUJ3p7p08H-11" style="edgeStyle=orthogonalEdgeStyle;rounded=0;orthogonalLoop=1;jettySize=auto;html=1;exitX=0.5;exitY=0;exitDx=0;exitDy=0;entryX=0.35;entryY=0.94;entryDx=0;entryDy=0;entryPerimeter=0;" edge="1" parent="1" source="S091G2MCqINUJ3p7p08H-1" target="v_S5VonyDdlzh0pliYqW-16">
          <mxGeometry relative="1" as="geometry" />
        </mxCell>
      </root>
    </mxGraphModel>
  </diagram>
</mxfile>
